<svg width="150" height="19" viewBox="0 0 150 19" fill="none" xmlns="http://www.w3.org/2000/svg">
<path d="M10.45 18.3C9.1 18.3 7.84167 18.0833 6.675 17.65C5.525 17.2 4.525 16.5667 3.675 15.75C2.825 14.9333 2.15833 13.975 1.675 12.875C1.20833 11.775 0.975 10.5667 0.975 9.25C0.975 7.93333 1.20833 6.725 1.675 5.625C2.15833 4.525 2.825 3.56667 3.675 2.75C4.54167 1.93333 5.55 1.30833 6.7 0.874998C7.85 0.424999 9.10833 0.2 10.475 0.2C11.9917 0.2 13.3583 0.466666 14.575 1C15.8083 1.51667 16.8417 2.28333 17.675 3.3L15.075 5.7C14.475 5.01667 13.8083 4.50833 13.075 4.175C12.3417 3.825 11.5417 3.65 10.675 3.65C9.85833 3.65 9.10833 3.78333 8.425 4.05C7.74167 4.31667 7.15 4.7 6.65 5.2C6.15 5.7 5.75833 6.29167 5.475 6.975C5.20833 7.65833 5.075 8.41667 5.075 9.25C5.075 10.0833 5.20833 10.8417 5.475 11.525C5.75833 12.2083 6.15 12.8 6.65 13.3C7.15 13.8 7.74167 14.1833 8.425 14.45C9.10833 14.7167 9.85833 14.85 10.675 14.85C11.5417 14.85 12.3417 14.6833 13.075 14.35C13.8083 14 14.475 13.475 15.075 12.775L17.675 15.175C16.8417 16.1917 15.8083 16.9667 14.575 17.5C13.3583 18.0333 11.9833 18.3 10.45 18.3ZM28.5438 18.3C27.1604 18.3 25.8771 18.075 24.6938 17.625C23.5271 17.175 22.5104 16.5417 21.6437 15.725C20.7938 14.9083 20.1271 13.95 19.6438 12.85C19.1771 11.75 18.9438 10.55 18.9438 9.25C18.9438 7.95 19.1771 6.75 19.6438 5.65C20.1271 4.55 20.8021 3.59167 21.6688 2.775C22.5354 1.95833 23.5521 1.325 24.7188 0.874998C25.8854 0.424999 27.1521 0.2 28.5188 0.2C29.9021 0.2 31.1687 0.424999 32.3188 0.874998C33.4854 1.325 34.4938 1.95833 35.3438 2.775C36.2104 3.59167 36.8854 4.55 37.3688 5.65C37.8521 6.73333 38.0938 7.93333 38.0938 9.25C38.0938 10.55 37.8521 11.7583 37.3688 12.875C36.8854 13.975 36.2104 14.9333 35.3438 15.75C34.4938 16.55 33.4854 17.175 32.3188 17.625C31.1687 18.075 29.9104 18.3 28.5438 18.3ZM28.5188 14.85C29.3021 14.85 30.0188 14.7167 30.6688 14.45C31.3354 14.1833 31.9188 13.8 32.4188 13.3C32.9188 12.8 33.3021 12.2083 33.5688 11.525C33.8521 10.8417 33.9938 10.0833 33.9938 9.25C33.9938 8.41667 33.8521 7.65833 33.5688 6.975C33.3021 6.29167 32.9188 5.7 32.4188 5.2C31.9354 4.7 31.3604 4.31667 30.6938 4.05C30.0271 3.78333 29.3021 3.65 28.5188 3.65C27.7354 3.65 27.0104 3.78333 26.3438 4.05C25.6938 4.31667 25.1188 4.7 24.6188 5.2C24.1188 5.7 23.7271 6.29167 23.4438 6.975C23.1771 7.65833 23.0438 8.41667 23.0438 9.25C23.0438 10.0667 23.1771 10.825 23.4438 11.525C23.7271 12.2083 24.1104 12.8 24.5938 13.3C25.0938 13.8 25.6771 14.1833 26.3438 14.45C27.0104 14.7167 27.7354 14.85 28.5188 14.85ZM49.6375 18.3C48.2542 18.3 46.9708 18.075 45.7875 17.625C44.6208 17.175 43.6042 16.5417 42.7375 15.725C41.8875 14.9083 41.2208 13.95 40.7375 12.85C40.2708 11.75 40.0375 10.55 40.0375 9.25C40.0375 7.95 40.2708 6.75 40.7375 5.65C41.2208 4.55 41.8958 3.59167 42.7625 2.775C43.6292 1.95833 44.6458 1.325 45.8125 0.874998C46.9792 0.424999 48.2458 0.2 49.6125 0.2C50.9958 0.2 52.2625 0.424999 53.4125 0.874998C54.5792 1.325 55.5875 1.95833 56.4375 2.775C57.3042 3.59167 57.9792 4.55 58.4625 5.65C58.9458 6.73333 59.1875 7.93333 59.1875 9.25C59.1875 10.55 58.9458 11.7583 58.4625 12.875C57.9792 13.975 57.3042 14.9333 56.4375 15.75C55.5875 16.55 54.5792 17.175 53.4125 17.625C52.2625 18.075 51.0042 18.3 49.6375 18.3ZM49.6125 14.85C50.3958 14.85 51.1125 14.7167 51.7625 14.45C52.4292 14.1833 53.0125 13.8 53.5125 13.3C54.0125 12.8 54.3958 12.2083 54.6625 11.525C54.9458 10.8417 55.0875 10.0833 55.0875 9.25C55.0875 8.41667 54.9458 7.65833 54.6625 6.975C54.3958 6.29167 54.0125 5.7 53.5125 5.2C53.0292 4.7 52.4542 4.31667 51.7875 4.05C51.1208 3.78333 50.3958 3.65 49.6125 3.65C48.8292 3.65 48.1042 3.78333 47.4375 4.05C46.7875 4.31667 46.2125 4.7 45.7125 5.2C45.2125 5.7 44.8208 6.29167 44.5375 6.975C44.2708 7.65833 44.1375 8.41667 44.1375 9.25C44.1375 10.0667 44.2708 10.825 44.5375 11.525C44.8208 12.2083 45.2042 12.8 45.6875 13.3C46.1875 13.8 46.7708 14.1833 47.4375 14.45C48.1042 14.7167 48.8292 14.85 49.6125 14.85ZM62.2313 18V0.499999H66.2813V14.7H75.0563V18H62.2313ZM82.9959 18.3C81.5959 18.3 80.2542 18.1167 78.9709 17.75C77.6876 17.3667 76.6542 16.875 75.8709 16.275L77.2459 13.225C77.9959 13.7583 78.8792 14.2 79.8959 14.55C80.9292 14.8833 81.9709 15.05 83.0209 15.05C83.8209 15.05 84.4626 14.975 84.9459 14.825C85.4459 14.6583 85.8126 14.4333 86.0459 14.15C86.2792 13.8667 86.3959 13.5417 86.3959 13.175C86.3959 12.7083 86.2126 12.3417 85.8459 12.075C85.4792 11.7917 84.9959 11.5667 84.3959 11.4C83.7959 11.2167 83.1292 11.05 82.3959 10.9C81.6792 10.7333 80.9542 10.5333 80.2209 10.3C79.5042 10.0667 78.8459 9.76667 78.2459 9.4C77.6459 9.03333 77.1542 8.55 76.7709 7.95C76.4042 7.35 76.2209 6.58333 76.2209 5.65C76.2209 4.65 76.4876 3.74167 77.0209 2.925C77.5709 2.09167 78.3876 1.43333 79.4709 0.949999C80.5709 0.449999 81.9459 0.2 83.5959 0.2C84.6959 0.2 85.7792 0.333333 86.8459 0.599999C87.9126 0.849999 88.8542 1.23333 89.6709 1.75L88.4209 4.825C87.6042 4.35833 86.7876 4.01667 85.9709 3.8C85.1542 3.56667 84.3542 3.45 83.5709 3.45C82.7876 3.45 82.1459 3.54167 81.6459 3.725C81.1459 3.90833 80.7876 4.15 80.5709 4.45C80.3542 4.73333 80.2459 5.06667 80.2459 5.45C80.2459 5.9 80.4292 6.26667 80.7959 6.55C81.1626 6.81667 81.6459 7.03333 82.2459 7.2C82.8459 7.36667 83.5042 7.53333 84.2209 7.7C84.9542 7.86667 85.6792 8.05833 86.3959 8.275C87.1292 8.49167 87.7959 8.78333 88.3959 9.15C88.9959 9.51667 89.4792 10 89.8459 10.6C90.2292 11.2 90.4209 11.9583 90.4209 12.875C90.4209 13.8583 90.1459 14.7583 89.5959 15.575C89.0459 16.3917 88.2209 17.05 87.1209 17.55C86.0376 18.05 84.6626 18.3 82.9959 18.3ZM105.188 0.499999H109.238V18H105.188V0.499999ZM97.2383 18H93.1883V0.499999H97.2383V18ZM105.488 10.825H96.9383V7.4H105.488V10.825ZM121.879 18.3C120.495 18.3 119.212 18.075 118.029 17.625C116.862 17.175 115.845 16.5417 114.979 15.725C114.129 14.9083 113.462 13.95 112.979 12.85C112.512 11.75 112.279 10.55 112.279 9.25C112.279 7.95 112.512 6.75 112.979 5.65C113.462 4.55 114.137 3.59167 115.004 2.775C115.87 1.95833 116.887 1.325 118.054 0.874998C119.22 0.424999 120.487 0.2 121.854 0.2C123.237 0.2 124.504 0.424999 125.654 0.874998C126.82 1.325 127.829 1.95833 128.679 2.775C129.545 3.59167 130.22 4.55 130.704 5.65C131.187 6.73333 131.429 7.93333 131.429 9.25C131.429 10.55 131.187 11.7583 130.704 12.875C130.22 13.975 129.545 14.9333 128.679 15.75C127.829 16.55 126.82 17.175 125.654 17.625C124.504 18.075 123.245 18.3 121.879 18.3ZM121.854 14.85C122.637 14.85 123.354 14.7167 124.004 14.45C124.67 14.1833 125.254 13.8 125.754 13.3C126.254 12.8 126.637 12.2083 126.904 11.525C127.187 10.8417 127.329 10.0833 127.329 9.25C127.329 8.41667 127.187 7.65833 126.904 6.975C126.637 6.29167 126.254 5.7 125.754 5.2C125.27 4.7 124.695 4.31667 124.029 4.05C123.362 3.78333 122.637 3.65 121.854 3.65C121.07 3.65 120.345 3.78333 119.679 4.05C119.029 4.31667 118.454 4.7 117.954 5.2C117.454 5.7 117.062 6.29167 116.779 6.975C116.512 7.65833 116.379 8.41667 116.379 9.25C116.379 10.0667 116.512 10.825 116.779 11.525C117.062 12.2083 117.445 12.8 117.929 13.3C118.429 13.8 119.012 14.1833 119.679 14.45C120.345 14.7167 121.07 14.85 121.854 14.85ZM134.472 18V0.499999H142.047C143.614 0.499999 144.964 0.758332 146.097 1.275C147.231 1.775 148.106 2.5 148.722 3.45C149.339 4.4 149.647 5.53333 149.647 6.85C149.647 8.15 149.339 9.275 148.722 10.225C148.106 11.175 147.231 11.9083 146.097 12.425C144.964 12.925 143.614 13.175 142.047 13.175H136.722L138.522 11.35V18H134.472ZM138.522 11.8L136.722 9.875H141.822C143.072 9.875 144.006 9.60833 144.622 9.075C145.239 8.54167 145.547 7.8 145.547 6.85C145.547 5.88333 145.239 5.13333 144.622 4.6C144.006 4.06667 143.072 3.8 141.822 3.8H136.722L138.522 1.875V11.8Z" fill="#101010"/>
</svg>
